<?xml version="1.0" encoding="UTF-8"?>
<svg version="1.1" id="Layer_1" xmlns="http://www.w3.org/2000/svg" xmlns:xlink="http://www.w3.org/1999/xlink" x="0px" y="0px"
	 width="100%" viewBox="0 0 436 435" enable-background="new 0 0 436 435" xml:space="preserve">
<path fill="#FFFFFF" opacity="1.000000" stroke="none" 
	d="
M437.000000,162.000000 
	C437.000000,253.640518 437.000000,344.781036 437.000000,435.921570 
	C436.859528,435.947723 436.719055,435.996765 436.578583,435.996765 
	C291.453552,436.000000 146.328522,436.000000 1.101749,436.000000 
	C1.101749,291.109497 1.101749,146.218872 1.101749,1.164131 
	C146.333176,1.164131 291.666565,1.164131 437.000000,1.164131 
	C437.000000,54.531029 437.000000,108.015511 437.000000,162.000000 
M130.838959,413.657166 
	C147.344849,420.871735 164.367661,426.399048 182.188004,429.281860 
	C227.313843,436.581757 270.839813,431.398407 312.041168,411.277924 
	C394.902069,370.813171 441.883942,285.998322 431.998077,194.263336 
	C426.200195,140.462204 403.497009,94.197800 362.570526,58.947704 
	C292.829895,-1.120128 213.549454,-13.991532 129.671295,23.599312 
	C54.534809,57.272488 13.729233,118.695862 5.421855,200.435745 
	C0.840932,245.509415 11.230081,288.104279 34.447952,327.231567 
	C57.369137,365.858887 89.337509,394.534271 130.838959,413.657166 
z"/>
</svg>